<?xml version="1.0" encoding="UTF-8" standalone="no"?>
<!-- Created with Inkscape (http://www.inkscape.org/) -->

<svg
   xmlns:dc="http://purl.org/dc/elements/1.1/"
   xmlns:cc="http://creativecommons.org/ns#"
   xmlns:rdf="http://www.w3.org/1999/02/22-rdf-syntax-ns#"
   xmlns:svg="http://www.w3.org/2000/svg"
   xmlns="http://www.w3.org/2000/svg"
   xmlns:sodipodi="http://sodipodi.sourceforge.net/DTD/sodipodi-0.dtd"
   xmlns:inkscape="http://www.inkscape.org/namespaces/inkscape"
   width="69.225952mm"
   height="62.196148mm"
   viewBox="0 0 245.28881 220.38005"
   id="svg4301"
   version="1.1"
   inkscape:version="0.91 r13725"
   sodipodi:docname="hint2.svg">
  <defs
     id="defs4303" />
  <sodipodi:namedview
     id="base"
     pagecolor="#ffffff"
     bordercolor="#666666"
     borderopacity="1.0"
     inkscape:pageopacity="0.0"
     inkscape:pageshadow="2"
     inkscape:zoom="0.98994949"
     inkscape:cx="116.80337"
     inkscape:cy="95.498212"
     inkscape:document-units="px"
     inkscape:current-layer="g4890"
     showgrid="false"
     fit-margin-top="0"
     fit-margin-left="0"
     fit-margin-right="0"
     fit-margin-bottom="0"
     inkscape:window-width="1280"
     inkscape:window-height="931"
     inkscape:window-x="1366"
     inkscape:window-y="0"
     inkscape:window-maximized="1" />
  <metadata
     id="metadata4306">
    <rdf:RDF>
      <cc:Work
         rdf:about="">
        <dc:format>image/svg+xml</dc:format>
        <dc:type
           rdf:resource="http://purl.org/dc/dcmitype/StillImage" />
        <dc:title></dc:title>
      </cc:Work>
    </rdf:RDF>
  </metadata>
  <g
     inkscape:label="Layer 1"
     inkscape:groupmode="layer"
     id="layer1"
     transform="translate(-249.44766,-447.88647)">
    <g
       id="g4890"
       transform="translate(2243.2983,790.66452)">
      <path
         inkscape:connector-curvature="0"
         id="path4233-6"
         d="m -1983.7081,-237.41907 a 114.2599,119.71125 0 0 0 0.6347,5.46875 114.2599,119.71125 0 0 0 2.502,11.67578 114.2599,119.71125 0 0 0 3.6016,11.35547 114.2599,119.71125 0 0 0 4.664,10.92382 114.2599,119.71125 0 0 0 5.6836,10.37891 114.2599,119.71125 0 0 0 6.6426,9.73242 114.2599,119.71125 0 0 0 7.5391,8.99024 114.2599,119.71125 0 0 0 8.3554,8.15625 114.2599,119.71125 0 0 0 9.0938,7.24218 114.2599,119.71125 0 0 0 9.7363,6.25586 114.2599,119.71125 0 0 0 10.2832,5.20313 114.2599,119.71125 0 0 0 10.7305,4.10351 114.2599,119.71125 0 0 0 11.0664,2.96094 114.2599,119.71125 0 0 0 11.293,1.78906 114.2599,119.71125 0 0 0 11.4062,0.59766 114.2599,119.71125 0 0 0 8.082,-0.30078 114.2599,119.71125 0 0 0 11.3379,-1.44141 114.2599,119.71125 0 0 0 11.1446,-2.62109 114.2599,119.71125 0 0 0 10.8378,-3.77344 114.2599,119.71125 0 0 0 10.4258,-4.88672 114.2599,119.71125 0 0 0 9.9063,-5.95508 114.2599,119.71125 0 0 0 9.291,-6.96093 114.2599,119.71125 0 0 0 8.5801,-7.89649 114.2599,119.71125 0 0 0 7.7851,-8.75586 114.2599,119.71125 0 0 0 6.9121,-9.52539 114.2599,119.71125 0 0 0 5.9688,-10.20117 114.2599,119.71125 0 0 0 4.9687,-10.77539 114.2599,119.71125 0 0 0 3.9161,-11.24023 114.2599,119.71125 0 0 0 2.6425,-10.83789 114.2599,119.71125 0 0 0 -113.2324,-104.83399 114.2599,119.71125 0 0 0 -111.7988,95.17188 z"
         style="opacity:1;fill:none;fill-opacity:1;stroke:#808080;stroke-width:20.37418556;stroke-linecap:round;stroke-linejoin:bevel;stroke-miterlimit:4;stroke-dasharray:none;stroke-dashoffset:0;stroke-opacity:1" />
      <circle
         r="28"
         cy="-232.58803"
         cx="-1871.2062"
         id="path4272"
         style="opacity:1;fill:#808080;fill-opacity:1;stroke:#808080;stroke-width:10.5;stroke-linecap:round;stroke-linejoin:bevel;stroke-miterlimit:4;stroke-dasharray:none;stroke-dashoffset:0;stroke-opacity:1" />
    </g>
  </g>
</svg>
